    <svg
    version="1.1"
    baseProfile="full"
    width="100%" height="100%"
    xmlns="http://www.w3.org/2000/svg"
    xmlns:xlink="http://www.w3.org/1999/xlink"
    viewBox="0 0 750 500"
    preserveAspectRatio="xMidYMax slice"
    >
    <defs>
    <!-- Clouds -->
        <style>
            .cls_cloud1 {
                fill: url("#linear-gradient-6");
            }
            .cls_cloud2 {
                fill: url("#linear-gradient-7");
            }
            .cls_cloud3 {
                fill: url("#linear-gradient-8");
            }
        </style>
        <linearGradient
            id="linear-gradient-6"
            x1="165"
            y1="340"
            x2="165"
            y2="295"
            gradientUnits="userSpaceOnUse"><stop offset="0" stop-color="#fff" stop-opacity="0"/><stop offset="0.08" stop-color="#fff" stop-opacity="0.15"/><stop offset="0.22" stop-color="#fff" stop-opacity="0.37"/><stop offset="0.36" stop-color="#fff" stop-opacity="0.56"/><stop offset="0.5" stop-color="#fff" stop-opacity="0.72"/><stop offset="0.63" stop-color="#fff" stop-opacity="0.84"/><stop offset="0.76" stop-color="#fff" stop-opacity="0.93"/><stop offset="0.89" stop-color="#fff" stop-opacity="0.98"/><stop offset="1" stop-color="#fff"/>
        </linearGradient>
        <linearGradient
            id="linear-gradient-7"
            x1="455"
            y1="445"
            x2="455"
            y2="410"
            xlink:href="#linear-gradient-6"/>
        <linearGradient
            id="linear-gradient-8"
            x1="630"
            y1="275"
            x2="630"
            y2="225"
            gradientUnits="userSpaceOnUse"><stop offset="0" stop-color="#fff" stop-opacity="0"/><stop offset="0.03" stop-color="#fff" stop-opacity="0.04"/><stop offset="0.24" stop-color="#fff" stop-opacity="0.33"/><stop offset="0.44" stop-color="#fff" stop-opacity="0.57"/><stop offset="0.62" stop-color="#fff" stop-opacity="0.75"/><stop offset="0.78" stop-color="#fff" stop-opacity="0.89"/><stop offset="0.91" stop-color="#fff" stop-opacity="0.97"/><stop offset="1" stop-color="#fff"/></linearGradient>
   
        <!-- Scene 1 Gradient -->

        <linearGradient
            id="hill_grad1"
            x1="-155"
            y1="265"
            x2="-155"
            y2="375"
            gradientTransform="matrix(-1, 0, 0, 1, 231, -100)"
            gradientUnits="userSpaceOnUse">
            <stop offset="0.3" stop-color="#001F44"/>
            <stop offset="0.9" stop-color="#001F44"/>
        </linearGradient>
        <radialGradient
            id="bg_grad"
            cx="400"
            cy="590"
            r="500"
            gradientUnits="userSpaceOnUse">
            <stop offset="0.7" stop-color="#00FDFF"/>
            <stop offset="0.8" stop-color="#73FDFF"/>
            <stop offset="0.8" stop-color="#76D6FF"/>
        </radialGradient>
        <radialGradient
            id="sun"
            cx="360"
            cy="195"
            r="38"
            gradientUnits="userSpaceOnUse">
            <stop offset="0.0" stop-color="#F5C54E"/>
            <stop offset="0.0" stop-color="#FFDBA6"/>
            <stop offset="0.2" stop-color="#F7BB93"/>
            <stop offset="0.7" stop-color="#F2995E"/>
            <stop offset="0.8" stop-color="#f07560"/>
            <stop offset="0.8" stop-color="#FFAB93"/>
        </radialGradient>
        <linearGradient
            id="hill_grad2"
            x1="240"
            y1="355"
            x2="750"
            y2="355"
            gradientUnits="userSpaceOnUse">
            <stop offset="0.5" stop-color="#113744"/>
            <stop offset="0.8" stop-color="#113744"/>
        </linearGradient>
        <linearGradient
            id="hill_grad3"
            x1="465"
            y1="500"
            x2="465"
            y2="225"
            gradientUnits="userSpaceOnUse">
            <stop offset="0.3" stop-color="#0D3D44" />
            <stop offset="1" stop-color="#0D3D44" />
        </linearGradient>
        <linearGradient
            id="grad4"
            x1="215"
            y1="230"
            x2="190"
            y2="600"
            gradientUnits="userSpaceOnUse">
            <stop offset="0" stop-color="#70375a"/>
            <stop offset="0.9" stop-color="#8a6e95"/>
        </linearGradient>
        <linearGradient
            id="hill_grad3"
            x1="1"
            y1="415"
            x2="340"
            y2="415"
            gradientUnits="userSpaceOnUse">
            <stop offset="0.2" stop-color="#433d6c"/>
            <stop offset="0.5" stop-color="#563a6a"/>
            <stop offset="1" stop-color="#1c1b38"/>
        </linearGradient>
        <linearGradient
            id="hill_grad4"
            x1="455"
            y1="295"
            x2="455"
            y2="500"
            gradientUnits="userSpaceOnUse">
            <stop offset="0.1" stop-color="#1c1b38"/>
            <stop offset="0.3" stop-color="#201e3e"/>
            <stop offset="1" stop-color="#563a6a"/>
        </linearGradient>
        <linearGradient
            id="hill_grad5"
            x1="435"
            y1="390"
            x2="475"
            y2="515"
            gradientUnits="userSpaceOnUse">
            <stop offset="0.3" stop-color="#1c1b38"/>
            <stop offset="0.5" stop-color="#201e3e"/>
            <stop offset="0.9" stop-color="#383263"/>
        </linearGradient>
        <linearGradient
            id="hill_grad6"
            x1="260"
            y1="335"
            x2="215"
            y2="500"
            gradientUnits="userSpaceOnUse">
            <stop offset="0.2" stop-color="#0e0a1a"/>
            <stop offset="0.3" stop-color="#100d1f"/>
            <stop offset="0.6" stop-color="#17142c"/>
            <stop offset="0.9" stop-color="#201f3f"/>
        </linearGradient>
        <linearGradient
            id="hill_grad7"
            x1="510"
            y1="320"
            x2="725"
            y2="625"
            gradientUnits="userSpaceOnUse">
            <stop offset="0.2" stop-color="#120e22"/>
            <stop offset="1" stop-color="#221d42"/>
        </linearGradient>

   </defs>


    <rect id="bg2" width="750" height="550" opacity="1" fill="url(#sun)"/>
    <rect id="bg" width="900" height="550" opacity="0.3" fill="url(#bg_grad)"/>

    <!-- Clouds -->
    <g id="clouds" data-name="&lt;Group&gt;"><path
        id="cloud1"
        data-name="&lt;Path&gt;"
        class="cls_cloud1"
        d="M242.0,334.0s-3.0-32.0-27.0-32.0c-21.0.0-20.0,20.0-20.0,20.0s-5.0-35.0-27.0-32.0c-29.0,4-27.0,35.0-27.0,35.0s-5.0-17.0-16.0-14.0S113.0,332,113.0,332l-50.0,8.0H263.0Z"
        transform="translate(80 -30)"/><path
        id="cloud2"
        data-name="&lt;Path&gt;"
        class="cls_cloud2"
        d="M544.0,434.0s0.0-30-22.0-30-21.0,24.0-21.0,24.0-3.0-14.0-17.0-12.0c-16.0,1.0-15.0,17.0-15.0,17.0s-3.0-12.0-19.0-8.0c-10,2.0-11.0,13.0-11.0,13.0s-5.0-16.0-17.0-16.0c-17-.0-24.0,17.0-24.0,17.0l-56.0,6.0L575,442.0Z"
        transform="translate(0 0)"/><path
        id="cloud3"
        data-name="&lt;Path&gt;"
        class="cls_cloud3"
        d="M765.0,269.0s3.0-49.0-35.0-49.0c-36.0.0-40.0,34.0-40.0,34.0s-2.0-13.0-23.0-13.0c-21.0.0-21.0,19.0-21.0,19.0s-0.0-27.0-18-28.0c-29.0-1.0-28.0,30-28.0,30s-6.0-15.0-23.0-12.0-19.0,17-19.0,17l-91.0,8.0h334Z"
        transform="translate(0 -0)"/>
    </g>
    <g id="birds">
        <path
            id="bird1"
            style="opacity: 0.8;"
            d="M110.61,428.6c-2.5,2.06-13.64-.79-17.86.84,0,0,1-2.72,2-2,0,0-.12-1.36-1.07-1.21a3.73,3.73,0,0,0-3.88.79s-1.65-.58-2.32-.24c0,0-5.63-5.13-9.77-9.69S65.91,410,64,403.62c0,0-.81,2.45,2.63,6.06,0,0-5.81-5-6.19-7.68a10.73,10.73,0,0,0,4,7.44c-1.93-1.61-3.54-3.69-5.54-5.23l0-.06a.28.28,0,0,0,0,.06c0,1.75,2,3.92,3.22,5.57-1.37,0-4.53-5.34-4.08-3.26a2.1,2.1,0,0,1-.13-.26,13.7,13.7,0,0,0,2.74,4.58c-.53-.07-1.69-1.6-1.86-.88a1.19,1.19,0,0,1-.09-.15c-.16,0,1.38,4.78,4.17,6.74-3-.23,4,4.44,5.37,4.34.4,1.4,3.53,3.2,3.86,4.5,2.33,2.76,4.63,7.07,8.58,8,.46,3.8-10.7,6-4.75,7.88a2.43,2.43,0,0,0,2.36,1.48c.2,1,1.59,1.14,2.38.73.3.49,1.61,2,2,1.31a29.91,29.91,0,0,1,2.58-7.4c.48-.2.89-.53,1.37-.71-.47,1.42,2.28-.32,3-.38a50.42,50.42,0,0,0,11-1.25c.85.59,2.52,1.46,2.37-.34,1.23,1.09,4.19,1,1.77-1a3.33,3.33,0,0,0,2.63,0,6.86,6.86,0,0,1-1.71-1.15c1.88.38,6.14-.19,2.11-1.38A3.77,3.77,0,0,0,110.61,428.6Z"
            fill="#fefefe"
            transform="translate(300 -160)"/>
    </g>
    <!-- SCENE -->
    <g id="scene">
        <g id="hills">
            <path
                id="hill1"
                d="M696.0,409H75V335.0c10.0-.0,20.0-.0,30.0-3.0,8.0-2.0,15.0-8.0,23.0-11.0s18.0,1.0,25.0-4.0C165,305.0,172,289.0,186.0,292.0c6.0,1.0,12.0,3.0,18.0.0,6-2.0,9.0-9.0,14.0-13.0,2.0-2.0,6.0-3.0,9.0-5.0,1.0-1.0,5.0-6.0,7-6.0,7.0-2.0,10.0,2.0,18.0-3.0,6.0-4.0,8.0-8.0,15.0-5,5,2.0,11.0,10.0,16,15.0C294.0,286,302,297.0,312.0,307.0c11.0,10.0,21.0,9.0,34.0,5.0,16.0-4.0,18.0,9.0,32.0,15.0,7.0,3.0,13.0-1.0,19.0-2.0,3.0-.0,5.0,2.0,9.0,1.0,3.0-.0,4.0-4.0,8.0-3,7.0,12.0,15.0,20,28.0,20.0,14.0.0,27.0.0,39.0-4.0A145.0,145.0,0,0,0,502.0,332c8.0-5.0,11.0-2.0,19.0,1.0,11.0,6.0,25.0,1.0,36.0,9.0,5.0,4,8.0,12.0,14.0,14.0,4.0,2,15.0.0,20.0-1.0,13.0-4.0,21.0-16.0,36.0-17.0,13.0-.0,25.0-4.0,39.0-2.0,10.0,1.0,18.0-.0,27.0-2.0Z"
                fill="url(#hill_grad1)"/>
            <path
                id="hill2"
                d="M750,500V212.0a19.0,19.0,0,0,0-11.0,8.0c-2.0,3.0-4.0,7.0-7.0,7.0-1.0-.0-2.0-1-4.0-1.0-5.0-.0-7.0,10.0-12.0,8.0a2.0,2.0,0,0,0-2.0-3.0c-1.0.0-2.0,1.0-3.0,2.0a46.0,46.0,0,0,0-7.0,14c-1.0-6-8.0-7.0-13.0-5.0s-8.0,7.0-11.0,12.0l-17.0,27.0c-4.0,7.0-11.0,15.0-18.0,12.0-3.0-1.0-5.0-5.0-9.0-6.0s-7.0,1.0-11.0.0c-5.0-1.0-8.0-11.0-14-10.0-3.0.0-5.0,4.0-8.0,3.0-1.0-.0-2.0-2.0-4-3.0s-3.0.0-5,1.0c-7.0,2.0-14.0-5.0-21.0-9.0-12.0-6.0-26.0,1.0-36.0,12.0-3.0,3.0-6,7.0-9.0,9.0-3.0,2-6.0,2.0-10.0,3.0L480,303.0c-15,3.0-30.0,6.0-44.0,13.0-6.0,3.0-13,7.0-19.0,10.0-10.0,3.0-22.0,1.0-33.0,1.0-9.0-.0-102.0,122.0-140,171.0Z"
                fill="url(#hill_grad2)"/>

            <path
                id="hill3"
                d="M300.0,425.0c-7.0-5.0-17.0-7.0-25.0-12.0-14.0-7.0-25.0-21.0-39.0-29.0l-.0-3.0a7,7,0,0,0-1.0,2.0,51.0,51.0,0,0,0-7.0-3.0,7.0,7.0,0,0,0-.0-1.0c-.0-1.0-2.0-2.0-3.0-1.0q-.0-8.0-1.0-16.0a62.0,62.0,0,0,0-2.0,12.0l-1.0-3.0a19.0,19.0,0,0,0-.0,6.0c.0.0.0,1.0.0,1.0-1.0-.0-3-.0-4.0-.0q-.0-3-.0-6a2.0,2.0,0,0,0-.0-1.0c-.0-.0-2.0.0-2.0,1.0a60,60,0,0,0-1.0-12.0q-2,8-4,16.0a58.0,58.0,0,0,1-3-10.0l-1.0.0a53.0,53.0,0,0,0-1.0-12.0,59.0,59.0,0,0,0-2.0,6.0l-.0-22.0c-1.0.0-1.0,3-2.0,5l-1.0,17.0-.0-9.0-1.0,13.0c-.0,1.0-.0,3.0-2,2.0-.0-3.0-.0-6.0-.0-9.0a44.0,44.0,0,0,0-.0,12.0,18.0,18.0,0,0,1-.0,5.0,5.0,5.0,0,0,1-.0,1.0c-.0-.0-1.0-.0-2.0-.0a62.0,62.0,0,0,0-.0-14.0q-.0,7.0-1.0,14.0l-1.0-.0a14.0,14.0,0,0,0-1.0-3.0c-.0,1.0-.0,2.0-.0,3.0-2.0-.0-5.0-1.0-8.0-2.0a46.0,46.0,0,0,1-.0-7.0c0-2.0.0-4.0-1.0-6.0q-1.0,5.0-2.0,11.0l-2.0-5.0a10.0,10.0,0,0,1-1.0,2.0,70.0,70.0,0,0,1-2.0-19.0,5.0,5.0,0,0,0-.0-2.0c-.0-.0-1.0-1.0-1.0-.0a2.0,2.0,0,0,0-.0,1.0c-.0,3.0-.0,7.0-2.0,9.0a71.0,71.0,0,0,0-2.0-7.0c-2.0.0-.0,6-2.0,6.0a2.0,2.0,0,0,1-1.0-.0c-1.0-.0-4.0.0-4.0,3.0A36.0,36.0,0,0,0,138,349c-1,1-1.0,2.0-1.0,4.0s-1.0,2.0-2.0,2.0c-1.0-.0-2-1.0-2.0-2.0a16.0,16.0,0,0,1,.0-4.0,24,24,0,0,0-1.0-9.0q-1.0,6.0-2.0,12.0a2.0,2.0,0,0,1-.0,1.0l-1-.0a3.0,3.0,0,0,1-.0-.0q-.0-2.0-1.0-4.0a4.0,4.0,0,0,0-3.0,2.0q-2.0-1.0-4.0-2.0c-.0-1.0-.0-3.0-.0-5a14.0,14.0,0,0,0-1.0-5.0,28.0,28.0,0,0,1-1.0,8.0c-11.0-6.0-23.0-12.0-37.0-12.0C47.0,334,28.0,364.0,1,369.0V493H340.0C329.0,468.0,305.0,429.0,300.0,425.0Z"
                fill="url(#hill_grad3)"
                transform="translate(-10 -25)"/>
            <path
                id="hill4"
                d="M751,500V432.0c-32.0-68.0-53.0-58.0-101.0-92.0-.0-1-.0-2-.0-3a5.0,5.0,0,0,0-1.0,2.0,56.0,56.0,0,0,0-7.0-2.0c-.0-1.0-2.0-3.0-4-2.0q-.0-7-1.0-14.0a46.0,46.0,0,0,0-2.0,10.0l-1.0-3a16.0,16.0,0,0,0-.0,7.0c-1.0-.0-3-.0-4.0-.0-.0-2.0-.0-9.0-4.0-5.0a44.0,44.0,0,0,0-1.0-10.0q-2,6.0-3.0,13.0a44,44,0,0,1-3-8.0l-1.0.0a39.0,39.0,0,0,0-1.0-10.0,45.0,45.0,0,0,0-2.0,5.0l-.0-19.0c-4.0,4.0-2.0,13-3.0,18.0l-.0-8.0c-1.0,4,.0,12.0-3.0,13.0-.0-2.0-.0-5.0-.0-8.0-2,5.0.0,11.0-1.0,16.0-.0-.0-1.0-.0-2.0-.0a45.0,45.0,0,0,0-.0-12.0q-.0,6.0-1.0,12.0l-1.0-.0a11.0,11.0,0,0,0-1.0-3.0c-.0,1-.0,1.0-.0,2.0-2.0-.0-5.0-1.0-8.0-2-1.0-3.0.0-8.0-1.0-12l-2.0,9.0-2.0-4.0a8.0,8.0,0,0,1-1.0,2.0c-3.0-8.0.0-31.0-7.0-9.0a56,56,0,0,0-2.0-6.0c-2.0,9.0-4.0,1.0-8.0,7.0A27,27,0,0,0,552.0,310c-7.0,13.0-6.0-1.0-8.0-8.0-1.0,3.0-1.0,8.0-3.0,11.0l-1-.0c-.0-1.0-1-3-1.0-4.0a4.0,4.0,0,0,0-3.0,2.0l-4.0-1.0c-.0-2.0,0-6.0-2-8.0a21.0,21.0,0,0,1-1.0,7.0C477.0,273,440.0,336.0,390,328l-.0-2.0a17.0,17.0,0,0,0-.0,2.0c-.0.0-1.0.0-1.0.0a12.0,12.0,0,0,0-.0-4.0c-.0,1.0-.0,2.0-.0,4.0-2.0-.0-1.0-4.0-1.0-6.0-.0,1.0-.0,2.0-.0,4.0-.0-2.0.0-7.0-2.0-9.0l-.0,9.0a22.0,22.0,0,0,0-1.0-2.0,16.0,16.0,0,0,0-1.0,5.0l-.0-.0a18.0,18.0,0,0,1-1.0,3.0l-.0.0q-1.0-3.0-2.0-6.0a17.0,17.0,0,0,0-.0,5.0c-2.0-2.0-2.0,2.0-2.0,4.0l-.0-.0c-2.0,1.0-1.0-3-2.0-4.0l-.0,1.0a18.0,18.0,0,0,0-1.0-5.0c-.0,2.0-.0,4.0-1,6.0-4.0-.0-1.0,5.0-3,7.0l-.0.0a6.0,6.0,0,0,0-1.0-1.0l-.0,1c-1.0-1.0-.0-4.0-1.0-5.0l-.0,4.0a3.0,3.0,0,0,1-2.0-1.0c-.0.0-1.0,5.0-2.0,9.0l-8.0,5.0a65.0,65.0,0,0,1-1.0-8.0c0,2.0-2,7.0-2.0,11l-3.0,2.0c-1-3.0-2.0-7.0-2.0-7.0-.0,1.0-1.0,8.0-1.0,10.0l-1.0,1.0c-.0-4.0-1.0-9.0-2.0-11.0-.0,2-.0,8.0-.0,13.0l-5.0,3.0c-.0-2.0-1.0-5.0-2.0-5.0-.0,1.0-.0,5.0-1.0,7.0-4.0-4-3.0,5.0-7.0-5.0a53.0,53.0,0,0,0-2.0,6.0c-8.0-21.0-3.0,1.0-7.0,9.0a8.0,8.0,0,0,1-1.0-2.0L295.0,382l-2.0-9.0c-2.0,4.0-.0,10.0-2.0,15.0-12.0,7.0-87.0,76.0-133.0,112.0Z"
                fill="url(#hill_grad4)"
                transform="translate(-20 -0)"/>

            <path
                id="hill5"
                d="M599.0,500V408.0c-33.0-10.0-62.0-50.0-98.0-20.0a25.0,25.0,0,0,1-1.0-7.0c-1.0,2.0-1.0,6.0-1.0,9.0-1.0.0-2.0,1.0-3.0,2a4.0,4.0,0,0,0-2.0-2.0c-.0,1.0-.0,3.0-1.0,4.0l-.0.0c-1.0-3.0-1.0-8.0-3.0-12.0-1.0,6.0-.0,23.0-7.0,8.0a32,32,0,0,0-1.0,4.0c-3.0-6.0-5.0,1.0-7.0-8.0a62.0,62.0,0,0,0-1.0,6.0c-7.0-22.0-3.0,2-6.0,10.0a9,9,0,0,1-1.0-2.0q-1.0,2.0-2.0,4.0-1-5.0-2-10.0c-1.0,3.0-.0,8.0-1.0,12.0-2.0.0-5,1.0-7.0,2.0-.0-1-.0-2-.0-3a12.0,12.0,0,0,0-1.0,3.0l-1.0.0q-.0-6.0-.0-12.0a54.0,54.0,0,0,0-.0,12.0c-.0.0-1.0.0-2.0.0-1.0-5.0.0-11.0-1.0-16.0l-.0,8.0c-3.0-2.0-1.0-10.0-2.0-14.0l-.0,8.0c-1.0-6.0.0-14.0-3.0-19.0l-.0,20a53.0,53.0,0,0,0-2.0-5.0,47.0,47.0,0,0,0-1.0,11l-1.0-.0a51.0,51.0,0,0,1-2.0,9.0q-1.0-7.0-3.0-14.0A53.0,53.0,0,0,0,418,409.0c-3.0-4.0-3.0,3.0-3.0,5.0-1.0.0-2.0.0-4,.0a20.0,20.0,0,0,0-.0-7.0l-1,3.0a55.0,55.0,0,0,0-2.0-11q-.0,7.0-1.0,14.0c-1.0-1.0-3.0,1-3.0,2.0a46,46,0,0,0-6.0,3,6.0,6.0,0,0,0-1-2.0c-.0,1-.0,2.0-.0,3.0C358.0,452,331.0,448.0,309.0,500Z"
                fill="url(#hill_grad5)"/>
            <path
                id="hill6"
                d="M458.0,482c5.0-5-11.0.0,1.0-8.0,3.0-4.0-10.0.0-5.0-5.0,1.0-2.0-3.0-2.0-1.0-4.0,2.0-3.0-5.0-.0-5.0-4.0.0-2.0,5.0-1.0,5.0-4.0-1.0-1.0-8.0-.0-3.0-4.0.0-.0.0-1.0-.0-1.0-11.0.0,7.0-5.0-5.0-5-.0-7.0-4-8.0-4,.0-2.0-.0-6.0.0-2.0,2.0,6.0,4.0-6.0-.0-.0,6.0-9.0-.0,2.0,4.0-1.0,6.0-6.0-.0,1,3.0-.0,5-2.0-.0-9.0-2.0-6.0,2.0,1.0,1.0,5.0,1.0,4.0,4.0-14,.0-1.0-3.0-6.0-5.0-9.0.0,3.0-4.0,1.0-7.0-9.0.0-4.0-.0-7.0-8.0,2.0-4.0-13.0.0.0-8.0-5.0-2.0-6.0.0-3.0-5.0-11.0.0,5.0-5.0-5.0-5.0.0-7.0-4.0-7.0-4,.0-2.0-.0-6.0.0-2.0,2.0,6.0,4.0-6.0-.0-.0,6.0-9.0-.0,2.0,4-1.0,6.0-6.0-.0,1,3.0-.0,5-14.0-1.0-4.0,1.0-2.0,6.0-.0,2-7.0-1-3.0,2.0,6.0,3.0-1.0,4.0-4.0,2.0,1.0-4.0-12.0.0-.0-6.0-12.0-.0,6.0-5-5.0-4.0-5.0-2.0,8.0-3.0-.0-5.0-5.0-1.0,4.0-3.0.0-4.0-1.0.0-3.0-.0-2.0-1.0,6.0-2.0-.0-1.0-.0-3.0,4.0-1.0-.0-1.0-.0-3.0,4.0,1.0-1.0-14-3.0-3.0-.0,2.0-5.0.0-1.0,3.0,2.0,3.0-2.0,1.0-3.0,3,4.0,6-1.0,2.0-1.0,5.0,3.0,4,1.0,3.0-2.0,3.0,2.0,4,2.0,8.0-3.0,5.0-1.0-1.0,4.0-3.0.0-4.0-10.0.0,6.0-6.0.0-8-7.0,1.0-3.0-.0-6.0-7.0,2.0-3.0-5.0-.0-5.0-4.0.0-2.0,4.0-1.0,5.0-3.0.0-2.0-9.0-.0-3.0-5,2.0-3.0-6.0.0-3.0-3.0,5-2,1.0-3.0-1.0-3.0-.0-.0.0-8.0-3.0-4.0,1.0,8.0-7.0,3.0-2.0,8.0,6.0,4.0-6.0-.0-.0,6.0-9.0-.0,2.0,4-1.0,6.0-6.0-.0,1,3-.0,5-14.0-1.0-4.0,1.0-2.0,6.0-.0,1.0-3.0.0-4.0.0-1.0,1.0,8.0,6.0-.0,5.0,7.0-5.0-10,.0-.0-8.0-5.0-1.0-6.0-1.0-1.0-6.0-2.0-2.0-5.0.0-2.0-5.0-2.0-.0-4.0.0-1.0-2.0.0-2.0-4.0-.0-.0-4.0-4-.0-2.0-.0-1.0-3.0-4.0-.0-3.0-9.0-5.0-.0-1.0.0-.0,2,.0,1.0-.0,1.0-3.0,1.0-.0,2.0-.0,1.0-5.0,1.0-.0,2.0.0,1.0-1.0,1.0-2.0,1.0-3,1,4.0,2.0.0,3.0-7,1.0,3.0,2-.0,3.0-9-.0,4.0,2.0-4.0,3.0,11,6.0-6.0.0,1.0,6.0-.0,2-6.0-1.0-5.0,1.0,2.0.0,4.0,2.0.0,3.0-4.0,1.0-2,1.0-3.0-.0-6.0.0,3.0-3.0.0-4.0-5.0,1-1.0-1.0-3.0-3.0a.0.0,0,0,1-.0-1.0c.0-2.0-7.0-.0.0-4.0.0-1.0-5.0-.0-2.0-2.0,1.0-2.0-4,.0-2.0-2.0,3-1.0.0-1.0-1.0-1.0-.0-.0.0-5-2.0-2.0,1,5.0-4.0,1.0-1.0,4.0,3.0,2.0-3.0-.0-.0,3.0-5.0-.0,1.0,2.0-1,3.0-3.0-.0.0,1.0-.0,2.0-7.0-1-3.0.0-1.0,3.0-20.0-5.0,15.0-8.0-9.0-14.0-1-4.0,4.0-5,6.0-8.0-2.0-4.0-11.0,3.0-4.0-10.0-4.0-.0-8.0,1-3.0-4.0,1-5.0-8.0.0-1.0-8.0-.0-2.0-3.0,0-4.0-.0-3-2.0,3.0-5,2.0-6.0-8.0-.0-5.0-18.0-11.0-.0-3.0.0-.0,3.0,1.0,2.0-.0,2.0-7.0,2.0-.0,5,1.0,2.0-5.0,1.0-4.0,4.0.0,1.0,2.0.0,3.0,1.0,1.0,2.0-2.0,3.0-4.0,2.0-5.0,1.0,8.0,4.0.0,6.0-12.0,1.0,6.0,4.0-1,7.0-17.0-1,8.0,6.0-6.0,5.0-6.0-2.0-7.0-2-1.0-7.0-3.0-2.0-6.0,1.0-2.0-6.0-2.0-.0-5.0.0-2-2.0.0-3.0-5.0.0-1-5.0-4.0-1.0-3.0-.0-1.0-4.0-2.0-.0-2.0-2.0-4-4.0-3-2.0-1.0,3.0-2.0,4.0-2,.0-.0,2.0,1.0,1.0,0,1.0-4.0,1.0-.0,3.0,0,2.0-6.0,1.0-.0,3.0.0,1.0-1.0,1.0-2.0,1.0-3.0,1.0,5.0,2.0.0,4.0-7.0,1.0,4.0,2.0-.0,4.0-10.0-.0,5.0,3.0-5,4.0,10.0,6.0-.0,1.0-.0,5.0,8.0,4.0-6.0.0-3.0,4.0,7.0,3.0-3.0,4.0-2.0.0-6.0-.0,3.0-3.0.0-4.0-4.0,1-2.0-2.0-3.0-4.0.0-2.0-7.0-.0.0-4.0.0-1.0-5.0-.0-2-3,1.0-2.0-4,.0-2-2.0,3-1,1-1.0-1-1.0-.0-.0.0-5-1.0-3,.0,5.0-4.0,1.0-1.0,4.0,3.0,2.0-3.0-.0-.0,3.0-5.0-.0,1.0,2.0-1.0,3.0-3.0-.0.0,1.0-.0,2.0-10.0-2.0,3.0,4.0-4.0,3.0,4.0,5.0-10.0,1.0-1.0-3.0-2.0-2.0-5.0.0-2.0-5.0-2.0-.0-4.0.0-1.0-2.0.0-2.0-4.0-.0-.0-4.0-4.0-.0-2.0-.0-1.0-3.0-2.0-.0-2.0-2.0-3.0-4-2.0-1.0-1.0,3-2.0,3.0-1.0.0-.0,2,.0,1.0-4.0,3.0,2.0,2-1.0,3.0-4.0.0,4.0,2.0-.0,3.0.0-2.0-7.0.0-4.0-3.0,1.0-1.0-2.0-1.0-1.0-3.0,1.0-2.0-4-.0-3.0-3.0.0-2.0,4.0-1.0,4.0-3.0-.0-1-6.0-.0-2.0-3.0,2-2.0-5,.0-2.0-2.0.0-.0,2.0-.0,1.0-1.0-6.0.0-1.0-6.0-5.0-4.0-1.0.0.0,3.0-.0,3.0-1.0-.0-4.0.0-1.0,2,4.0,2.0-4.0-.0-.0,4.0-7-.0,1.0,3-1.0,4.0-6.0-.0,5.0,5.0-3.0,3.0,1.0-.0,1.0-2.0-.0-2.0-10.0.0,6.0-6.0.0-8-7.0,1.0-3.0-.0-6.0-7.0,2.0-4.0-13.0.0.0-8.0-5.0-2.0-6.0.0-3.0-5.0-1.0-.0-6.0,1-3.0-2,5-2,1.0-3.0-1.0-3.0-.0-.0.0-8.0-3.0-4.0,1.0,8.0-7.0,3.0-2.0,8.0,6.0,4.0-6.0-.0-.0,6.0-9.0-.0,2.0,4-1.0,6.0-6.0-.0,1,3.0-.0,5-14.0-1.0-4.0,1.0-2.0,6.0-7.0,2.0-5-.0-1.0,5.0-2.0,3.0-9.0-3.0-9.0,2.0-10.0-4.0,11.0-4.0-4.0-8.0,9.0-12.0-5.0.0.0-11.0-2.0-.0-5.0.0-2-2.0.0-3.0-5.0.0-1-5.0-.0-1.0-2.0,0-3-.0,1.0-7.0.0-1-2.0-8.0-3-2.0-1.0,3.0-2.0,4.0-2,.0-.0,2.0,1.0,1.0,0,1.0-4.0,1.0-.0,3.0,0,2.0-6.0,1.0-.0,3.0.0,2-2,1.0-3.0,1.0.0,3.0,6.0,2.0-1.0,4.0-2.0.0-2.0-1-1.0-3.0-1.0,0-2.0.0-1.0-1.0.0-1.0-2.0-.0-.0-2.0-2.0-.0-2-.0-.0-2.0-1.0-.0-1.0-1.0-2.0-2.0-.0-1.0-2.0,4.0-1,3.0-.0.0-2.0,1.0-.0,1.0-.0,1.0-3.0,1.0-.0,1.0.0.0-.0,1-1.0.0-2,.0,3,1.0.0,2.0-4.0.0,2.0,1.0-.0,2.0-5.0-.0,2.0,2-2.0,2.0,5.0,3.0.0.0-.0,3.0,3.0,1.0-.0,1.0-2.0,1.0,5.0-3.0-10.0-2.0-5.0-7.0,10.0-6.0-11.0-3.0,1.0-11.0-3.0-3.0-7.0,1.0-3.0-7.0-3.0-.0-5.0.0-2.0-3.0.0-3.0-5.0.0-1.0-5.0-9.0-1.0,1.0-4.0-2.0-5.0-2.0.0-3.0-10.0-5.0-3.0,1,2.0-4.0,5.0.0,5.0,0,1.0-5.0,1.0-.0,3.0-.0,2.0-7.0,2.0-.0,3.0.0,1.0-1.0,2.0-2.0,1.0-4,1.0,6.0,2.0.0,4.0-8.0,1.0,4.0,2.0-.0,5.0-11.0-.0,6.0,3.0-5.0,4.0.0,2.0,5,1.0,4.0,3.0-1.0,2.0-10.0-.0-3,5-1,2.0-8.0-1.0-6.0,2.0,3.0,1.0,5.0,3,1.0,4.0a5.0,5.0,0,0,0-2.0,1c-21-4.0,14.0-9.0-10.0-14.0-1-4.0,4.0-5.0,6.0-8.0-2.0-4.0-11.0,3.0-4.0-10.0-4.0-.0-8.0,1-3.0-4.0,1-5.0-8.0.0-1.0-8.0-.0-2.0-3.0,0-4.0-.0-3-2.0,3.0-5,2.0-6.0-4.0-.0-4.0-4.0-6.0-7.0-4.0-3.0-2.0,5.0-4.0,6.0-3.0.0-.0,3.0,1.0,2.0-.0,2.0-7.0,2.0-.0,5,1.0,2.0-5.0,1.0-4.0,4.0,4.0.0,5.0,4.0-.0,4.0-5.0,1.0,8.0,4.0.0,6.0-12.0,1.0,6.0,4.0-1,7.0-17.0-.0,9.0,5.0-8.0,6.0.0,3.0,7.0,1.0,7,5-3.0,4.0-14.0-1.0-4.0,7.0-16.0-2.0,6.0-6.0-8.0-9.0,9.0-12.0-5.0.0.0-11.0-2.0-.0-5.0.0-2-2.0.0-3.0-5.0.0-1-5.0-.0-1.0-2.0,0-3-.0,1.0-7.0.0-1-2.0-8.0-3-2.0-1.0,3.0-2.0,4.0-2,.0-.0,2.0,1,1.0,0,1.0-4.0,1.0-.0,3.0-.0,2.0-6.0,1.0-.0,3.0.0,2-2,1.0-3.0,1.0-.0,2.0,7,2.0-1.0,4.0,3.0-3-3.0-3-.0-5.0,3.0-4.0-12.0-.0-2.0-6.0,1.0-.0,3.0-.0,3.0-2.0-.0-1.0-6.0.0-5.0-3.0,3.0-2.0,1.0-3.0-1.0-2.0C-.0,344.0.0,465.0.0,500H467.0C473.0,495.0,471.0,489.0,458.0,482ZM10.0,370c-1.0.0-3.0-.0-3-2.0C8.0,368.0,11.0,368.0,10.0,370Zm107.0,18.0c.0,0,.0.0.0.0C121.0,390.0,115.0,390.0,118.0,388.0Zm-1.0-2.0c-.0-1.0,1.0-1.0,1.0-2.0C124.0,385.0,120,387.0,116.0,385.0Zm77.0,31.0c.0-.0,1.0-2.0,2.0-1.0S194.0,417.0,193.0,417.0Zm-.0-2.0c-3.0-.0-.0-3.0,1.0-3.0C200.0,413,192.0,413.0,193.0,415.0Zm65.0,17.0a2.0,2.0,0,0,1,.0.0C259.0,432.0,258.0,432.0,258.0,432.0Zm2.0-4c-1.0-1-3.0-1-5.0-1.0C251,418.0,271.0,425.0,261.0,428.0ZM391,465a.0.0,0,0,1,.0-.0C391.0,464.0,391.0,466,391,465Zm39.0,11.0H432C431.0,477.0,431,476.0,430.0,476.0Z"
                fill="url(#hill_grad6)"
                transform="translate(-60 0)"/>
            <path
                id="hill7"
                d="M761.0,506.0c-5.0-.0,10.0-182.0-7.0-162-1.0-2.0,9.0-6.0.0-5.0-4.0-.0,1-4-1.0-4.0-2.0-.0,1.0-4.0-2.0-3.0-8.0-1.0,7.0-5.0.0-5.0-1.0.0-2.0-.0-2.0-1.0,5.0-4.0-4.0-.0-1.0-4,4.0-1.0,1.0-2.0-1.0-2.0-.0-.0.0-6.0-2.0-4,1.0,7.0-6.0,2.0-2.0,6.0,5.0,3-5-.0-.0,5.0-7.0-.0,1.0,3.0-1.0,5.0-5.0-.0.0,2.0-.0,4.0-14.0-3.0,4.0,6.0-5.0,5.0-1.0,1.0,5.0,2.0,1.0,4.0-9-2.0-7.0,1.0-.0,4.0-.0,3.0-7.0.0-6.0,4.0a2.0,2.0,0,0,0-2.0-1.0c-3.0-1.0,2.0-2,.0-3.0-1-.0-2.0.0-3.0-.0,5-3.0-6.0-.0.0-4.0-5.0-.0,2.0-2.0-2.0-2.0-2.0-1.0,4.0-1.0-.0-2.0-2.0-1,2.0-1.0.0-2.0-.0.0-1.0-.0-1.0-.0,3.0-.0-.0-.0-.0-2,2.0-.0.0-.0-.0-1.0,2,1.0-.0-4.0-1.0-3.0-2.0,3-.0,4.0-3.0,5.0,2.0,2.0-.0,1.0-.0,2.0,1.0,1.0.0,1.0-1.0,1.0,2.0,3.0.0,2.0-1.0,3.0,3,2.0,2.0,3.0-1.0,4.0,6.0,6.0-5.0,1.0-.0,6a54.0,54.0,0,0,1-5.0,3c-5.0-1.0,5.0-3.0-2.0-4.0,5-6.0-2.0-.0.0-6.0-1.0,0-2.0.0-1.0-1.0,0-1.0-2.0-.0-.0-2.0-2.0-.0-2.0-.0-.0-2.0-1.0-.0-1.0-1.0-2.0-2.0-1.0-1.0-2.0,5.0-1.0,5.0-3.0,2.0,2.0,2.0-2.0,2.0-.0,1.0,3.0,1.0.0,2.0-4.0.0,2.0,1.0-.0,2.0-5-.0,2.0,2.0-2.0,2.0-6-1.0,1.0-3-3.0-4.0,3.0-4.0-1.0-.0.0-4.0-1.0,0-2,.0-.0-1.0,0-1.0-2-.0-.0-2.0-1.0-.0-.0-1.0-2.0-3.0-.0-.0-2.0,3.0-.0,2.0-.0.0-1.0.0-.0,1.0-.0.0-2.0.0-.0,1.0.0.0-.0.0-1,.0-1.0.0,2.0,1.0.0,1.0-3.0.0,1.0,1-.0,1.0-3.0-.0,1.0,1.0-2.0,1.0,4.0,3.0-9.0.0,0-5.0-3.0-2.0-6.0.0-3-6.0-3,0-5.0.0-2.0-3,.0-3.0-5.0-.0-1-5.0-6.0-1.0.0-1-5.0-9.0-3.0-2.0-1.0,3.0-3.0,4.0-2.0.0-.0,2.0,1.0,1.0-.0,1.0-4,2.0-.0,3.0-.0,2.0-6.0,2.0-.0,3.0.0,1.0-1.0,2-2.0,1.0-3.0,1.0,5.0,2.0.0,4.0-8.0,1.0,4.0,2.0-.0,4.0-10.0-.0,5.0,3.0-5.0,4.0.0,2.0,4.0,1,4.0,3.0-1.0,2.0-9.0-.0-2.0,4.0-.0,2.0-7.0-1.0-6.0,2.0,3,1,4.0,3,1.0,4.0-7.0,1.0-5.0,12.0-10,18.0-5.0.0-1.0-2.0.0-4.0-2.0-1.0-4.0-.0-2.0-4.0-2.0,0-3.0.0-1.0-2.0,0-2.0-3.0-.0-.0-3.0-3.0-.0-2.0-.0-1.0-3.0-2.0-.0-2.0-2-3.0-3.0-2.0-1.0-1,2.0-2.0,3.0-1.0.0-.0,1.0.0,1.0-.0,1.0-2.0,1.0-.0,2.0-.0,1.0-4.0,1.0-.0,2.0.0,1.0-1.0,1.0-1.0,1.0-2.0.0,4.0,1.0.0,3.0-6.0,1,3.0,1.0-.0,3.0-7.0-.0,3.0,2.0-3.0,3.0,7.0,4.0.0,1.0-.0,4.0,4.0,2.0-1.0,1.0-2.0,2.0,7.0-7.0-4.0-1,.0-8.0-2.0,0-4,.0-1.0-2.0.0-2.0-4-.0-.0-4.0-7-1.0,1.0-2.0-2-3.0-1.0.0-2.0-7.0-4.0-2.0.0,1.0-3.0,3.0.0,3.0-.0,1.0-3.0,1.0-.0,2.0-.0,1.0-5.0,1.0-.0,2.0.0,1.0-1.0,1.0-2,1.0-2.0,1,4.0,2.0.0,3.0-6.0,1.0,3.0,2-.0,3.0-8-.0,4.0,3-4.0,3.0,10.0,6.0-6,.0,1.0,6.0-1,1.0-3.0.0-4.0.0-.0,4.0,7.0,2.0-3.0,6.0-5.0.0,4.0-4.0-1.0-3.0-1.0-.0-.0-1-1.0-3.0-.0-2.0-5.0-.0.0-3.0-2.0-.0-2.0-.0-1.0-2.0-.0-.0-2.0.0-1.0-.0,2.0-.0.0-1.0-.0-1.0-.0-.0.0-3.0-1.0-2.0.0,3.0-3.0,1.0-1.0,3.0,2.0,1.0-2.0-.0,0,2.0-4.0-.0,1,1.0-.0,3-2.0-.0.0,1.0-.0,2.0-7.0-1.0,2.0,3.0-3.0,3.0-1,1,2.0,1.0.0,2.0-4.0-1.0-4.0,1-.0,2.0-.0,1.0-5.0.0-3.0,3-2.0,1-8,1.0-4.0-2.0-4.0-.0-3.0-8.0-5.0-.0-1.0.0-.0,1.0.0,1.0-.0,1.0-3.0,1.0-.0,2.0-.0,1.0-5.0,1.0-.0,2.0.0,1.0-1.0,1.0-2,1.0-2.0,1,4.0,2.0.0,3.0-6.0,1,3.0,2-.0,3.0-8-.0,4.0,2.0-4.0,3.0,10.0,6.0-5.0.0,1.0,6.0-.0,1.0-3.0.0-4.0.0-2.0,1.0,6,2.0.0,4.0-1.0-.0-3.0,1.0-2,3.0-1.0,1.0-5.0,2.0-1.0.0-3.0-1.0-1.0-.0-.0-2.0-4.0-.0,1.0-1.0-1.0-1.0-2-.0,1.0-.0-.0-2.0,2.0,0-.0-1.0.0-2.0-.0-2.0-1.0,1.0-2.0,1.0-1.0.0,3.0,1.0-1.0,2.0,1.0,2.0-.0,1.0-.0,2.0,1.0,1.0.0,1.0-1,1.0,1.0,2.0.0,2.0-1.0,3.0,2.0,2.0,2,2.0-.0,3.0,6.0,5.0-13.0,7.0-3.0-.0-2.0-1.0-5.0-.0-2.0-5.0-2.0,0-4.0.0-1.0-2.0.0-2.0-4.0-.0-.0-4.0-5.0-1,.0-1.0-4.0-8.0-2.0-2-1.0,3.0-2.0,3.0-1.0.0-.0,2,.0,1.0-.0,1.0-3.0,1.0-.0,2.0-.0,1.0-5.0,1.0-.0,3,.0,1.0-1.0,1.0-2.0,1.0-3.0,1.0,4.0,2.0.0,3.0-7.0,1.0,3.0,2.0-.0,4.0-8.0-.0,4.0,3.0-4.0,3.0.0,1.0,3.0.0,3.0,2.0-11.0,2.0,4.0,4.0-7.0,4.0-3,2,6.0,3,.0,5-19.0,16.0-40,40.0-67.0,39.0C204.0,521.0,763.0,501.0,761.0,506.0ZM690.0,348.0c1.0-1.0,4.0,2.0.0,1.0C690.0,349.0,689.0,348.0,690.0,348.0Zm-11.0-.0c1.0-.0.0.0-.0.0C677.0,348.0,678.0,348,678.0,347.0Zm-54.0,30.0a4.0,4.0,0,0,0,1.0.0C624.0,378.0,623.0,378,623.0,378.0Z"
                fill="url(#hill_grad7)"
                transform="translate(-10 0)"/>
        </g>
    </g>

</svg>